<?xml version="1.0" encoding="UTF-8"?><svg id="Layer_1" xmlns="http://www.w3.org/2000/svg" viewBox="8.58 14.17 85.82 141.73"><defs><style>.cls-1{fill:#e74c2d;}.cls-2{fill:#3e3de1;}.cls-3{fill:#fff;}.cls-4{fill:#d6f20c;}.cls-5{fill:#00e993;}.cls-6{fill:#0bd1ff;}</style></defs><rect x="8.58" y="14.17" width="85.82" height="141.73" rx="8.56" ry="8.56"/><path class="cls-4" d="M20.15,38.19h.85c.07,1.74,1.02,2.65,3.35,2.65s3.2-.89,3.2-2.17v-.07c0-.99-.55-1.54-1.68-1.67l-3.28-.38c-1.52-.18-2.29-.94-2.29-2.29v-.07c0-1.7,1.2-2.87,3.87-2.87,2.6,0,3.7,1.07,3.75,2.97h-.83c-.07-1.54-.88-2.33-2.94-2.33s-2.99.88-2.99,2.17v.07c0,1,.53,1.53,1.72,1.67l3.28.37c1.46.17,2.24.94,2.24,2.31v.07c0,1.66-1.18,2.87-4.09,2.87s-4.11-1.18-4.16-3.3Z"/><path class="cls-4" d="M30.23,28.49h1.29s0,1.33,0,1.33h-1.29s0-1.33,0-1.33ZM30.45,31.63h.86s0,9.56,0,9.56h-.86s0-9.56,0-9.56Z"/><path class="cls-4" d="M33.82,31.62h.86s0,1.91,0,1.91c.52-1.37,1.77-2.2,3.45-2.2s2.82.85,3.14,2.39c.49-1.48,1.77-2.39,3.53-2.39,2.04,0,3.25,1.2,3.25,3.36v6.5s-.86,0-.86,0v-6.31c0-1.89-1.01-2.89-2.66-2.89-1.87,0-3.17,1.27-3.17,3.18v6.02s-.85,0-.85,0v-6.31c0-1.89-1.01-2.89-2.67-2.89-1.86,0-3.16,1.27-3.16,3.18v6.02s-.86,0-.86,0v-9.57Z"/><path class="cls-4" d="M50.49,31.63h.86s0,2.47,0,2.47c.6-1.84,2.02-2.76,3.96-2.76,2.64,0,4.32,1.69,4.32,4.95v.26c0,3.27-1.68,4.95-4.32,4.95-1.94,0-3.36-.92-3.96-2.76v6.29s-.86,0-.86,0v-13.39ZM58.76,36.58v-.34c0-2.8-1.45-4.26-3.7-4.26s-3.71,1.46-3.71,4.26v.34c0,2.8,1.46,4.26,3.71,4.26,2.25,0,3.7-1.46,3.7-4.26Z"/><path class="cls-4" d="M61.67,27.8h.86s0,13.39,0,13.39h-.86s0-13.39,0-13.39Z"/><path class="cls-4" d="M64.83,28.49h1.29s0,1.33,0,1.33h-1.29s0-1.33,0-1.33ZM65.04,31.63h.86s0,9.56,0,9.56h-.86s0-9.56,0-9.56Z"/><path class="cls-4" d="M69.64,32.28h-2.17s0-.65,0-.65h2.35c-.21-.13-.56-.5-.56-1.48v-.29c0-1.45.81-2.25,2.71-2.25.64,0,1.12.08,1.35.13v.64c-.22-.05-.72-.13-1.25-.13-1.39,0-1.97.58-1.97,1.72v.33c0,.93.34,1.27.55,1.34h2.67s0,.65,0,.65h-2.83v8.91s-.86,0-.86,0v-8.91Z"/><path class="cls-4" d="M74.24,45.06v-.74c.17.03.59.08.91.08,1.06,0,1.66-.49,2.12-1.58l.7-1.63-4.03-9.56h.92s3.54,8.6,3.54,8.6l3.54-8.6h.91s-4.85,11.5-4.85,11.5c-.59,1.39-1.36,2.01-2.81,2.01-.4,0-.78-.05-.94-.08Z"/><path class="cls-6" d="M20.15,56.9h.85c.07,1.74,1.02,2.65,3.35,2.65s3.2-.89,3.2-2.17v-.07c0-.99-.55-1.54-1.68-1.67l-3.28-.38c-1.52-.18-2.29-.94-2.29-2.29v-.07c0-1.7,1.2-2.87,3.87-2.87s3.7,1.07,3.75,2.97h-.83c-.07-1.54-.88-2.33-2.94-2.33s-2.99.88-2.99,2.17v.07c0,1,.53,1.53,1.72,1.67l3.28.37c1.46.17,2.24.94,2.24,2.31v.07c0,1.66-1.18,2.87-4.09,2.87s-4.11-1.18-4.16-3.3Z"/><path class="cls-6" d="M30.23,47.19h1.29s0,1.33,0,1.33h-1.29s0-1.33,0-1.33ZM30.45,50.33h.86s0,9.56,0,9.56h-.86s0-9.56,0-9.56Z"/><path class="cls-6" d="M33.82,50.32h.86s0,1.91,0,1.91c.52-1.37,1.77-2.2,3.45-2.2s2.82.85,3.14,2.39c.49-1.48,1.77-2.39,3.53-2.39,2.04,0,3.25,1.2,3.25,3.36v6.5s-.86,0-.86,0v-6.31c0-1.89-1.01-2.89-2.66-2.89-1.87,0-3.17,1.27-3.17,3.18v6.02s-.85,0-.85,0v-6.31c0-1.89-1.01-2.89-2.67-2.89-1.86,0-3.16,1.27-3.16,3.18v6.02s-.86,0-.86,0v-9.57Z"/><path class="cls-6" d="M50.49,50.33h.86s0,2.47,0,2.47c.6-1.84,2.02-2.76,3.96-2.76,2.64,0,4.32,1.69,4.32,4.95v.26c0,3.27-1.68,4.95-4.32,4.95-1.94,0-3.36-.92-3.96-2.76v6.29s-.86,0-.86,0v-13.39ZM58.76,55.28v-.34c0-2.8-1.45-4.26-3.7-4.26s-3.71,1.46-3.71,4.26v.34c0,2.8,1.46,4.26,3.71,4.26s3.7-1.46,3.7-4.26Z"/><path class="cls-6" d="M61.67,46.5h.86s0,13.39,0,13.39h-.86s0-13.39,0-13.39Z"/><path class="cls-6" d="M64.83,47.19h1.29s0,1.33,0,1.33h-1.29s0-1.33,0-1.33ZM65.04,50.33h.86s0,9.56,0,9.56h-.86s0-9.56,0-9.56Z"/><path class="cls-6" d="M69.64,50.99h-2.17s0-.65,0-.65h2.35c-.21-.13-.56-.5-.56-1.48v-.29c0-1.45.81-2.25,2.71-2.25.64,0,1.12.08,1.35.13v.64c-.22-.05-.72-.13-1.25-.13-1.39,0-1.97.58-1.97,1.72v.33c0,.93.34,1.27.55,1.34h2.67s0,.65,0,.65h-2.83v8.91s-.86,0-.86,0v-8.91Z"/><path class="cls-6" d="M74.24,63.76v-.74c.17.03.59.08.91.08,1.06,0,1.66-.49,2.12-1.58l.7-1.63-4.03-9.56h.92s3.54,8.6,3.54,8.6l3.54-8.6h.91s-4.85,11.5-4.85,11.5c-.59,1.39-1.36,2.01-2.81,2.01-.4,0-.78-.05-.94-.08Z"/><path class="cls-2" d="M20.15,75.6h.85c.07,1.74,1.02,2.65,3.35,2.65s3.2-.89,3.2-2.17v-.07c0-.99-.55-1.54-1.68-1.67l-3.28-.38c-1.52-.18-2.29-.94-2.29-2.29v-.07c0-1.7,1.2-2.87,3.87-2.87s3.7,1.07,3.75,2.97h-.83c-.07-1.54-.88-2.33-2.94-2.33s-2.99.88-2.99,2.17v.07c0,1,.53,1.53,1.72,1.67l3.28.37c1.46.17,2.24.94,2.24,2.31v.07c0,1.66-1.18,2.87-4.09,2.87s-4.11-1.18-4.16-3.3Z"/><path class="cls-2" d="M30.23,65.9h1.29s0,1.33,0,1.33h-1.29s0-1.33,0-1.33ZM30.45,69.03h.86s0,9.56,0,9.56h-.86s0-9.56,0-9.56Z"/><path class="cls-2" d="M33.82,69.02h.86s0,1.91,0,1.91c.52-1.37,1.77-2.2,3.45-2.2s2.82.85,3.14,2.39c.49-1.48,1.77-2.39,3.53-2.39,2.04,0,3.25,1.2,3.25,3.36v6.5s-.86,0-.86,0v-6.31c0-1.89-1.01-2.89-2.66-2.89-1.87,0-3.17,1.27-3.17,3.18v6.02s-.85,0-.85,0v-6.31c0-1.89-1.01-2.89-2.67-2.89-1.86,0-3.16,1.27-3.16,3.18v6.02s-.86,0-.86,0v-9.57Z"/><path class="cls-2" d="M50.49,69.03h.86s0,2.47,0,2.47c.6-1.84,2.02-2.76,3.96-2.76,2.64,0,4.32,1.69,4.32,4.95v.26c0,3.27-1.68,4.95-4.32,4.95-1.94,0-3.36-.92-3.96-2.76v6.29s-.86,0-.86,0v-13.39ZM58.76,73.98v-.34c0-2.8-1.45-4.26-3.7-4.26s-3.71,1.46-3.71,4.26v.34c0,2.8,1.46,4.26,3.71,4.26s3.7-1.46,3.7-4.26Z"/><path class="cls-2" d="M61.67,65.21h.86s0,13.39,0,13.39h-.86s0-13.39,0-13.39Z"/><path class="cls-2" d="M64.83,65.9h1.29s0,1.33,0,1.33h-1.29s0-1.33,0-1.33ZM65.04,69.03h.86s0,9.56,0,9.56h-.86s0-9.56,0-9.56Z"/><path class="cls-2" d="M69.64,69.69h-2.17s0-.65,0-.65h2.35c-.21-.13-.56-.5-.56-1.48v-.29c0-1.45.81-2.25,2.71-2.25.64,0,1.12.08,1.35.13v.64c-.22-.05-.72-.13-1.25-.13-1.39,0-1.97.58-1.97,1.72v.33c0,.93.34,1.27.55,1.34h2.67s0,.65,0,.65h-2.83v8.91s-.86,0-.86,0v-8.91Z"/><path class="cls-2" d="M74.24,82.46v-.74c.17.03.59.08.91.08,1.06,0,1.66-.49,2.12-1.58l.7-1.63-4.03-9.56h.92s3.54,8.6,3.54,8.6l3.54-8.6h.91s-4.85,11.5-4.85,11.5c-.59,1.39-1.36,2.01-2.81,2.01-.4,0-.78-.05-.94-.08Z"/><path class="cls-1" d="M20.15,94.3h.85c.07,1.74,1.02,2.65,3.35,2.65s3.2-.89,3.2-2.17v-.07c0-.99-.55-1.54-1.68-1.67l-3.28-.38c-1.52-.18-2.29-.94-2.29-2.29v-.07c0-1.7,1.2-2.87,3.87-2.87s3.7,1.07,3.75,2.97h-.83c-.07-1.54-.88-2.33-2.94-2.33s-2.99.88-2.99,2.17v.07c0,1,.53,1.53,1.72,1.67l3.28.37c1.46.17,2.24.94,2.24,2.31v.07c0,1.66-1.18,2.87-4.09,2.87s-4.11-1.18-4.16-3.3Z"/><path class="cls-1" d="M30.23,84.6h1.29s0,1.33,0,1.33h-1.29s0-1.33,0-1.33ZM30.45,87.74h.86s0,9.56,0,9.56h-.86s0-9.56,0-9.56Z"/><path class="cls-1" d="M33.82,87.73h.86s0,1.91,0,1.91c.52-1.37,1.77-2.2,3.45-2.2s2.82.85,3.14,2.39c.49-1.48,1.77-2.39,3.53-2.39,2.04,0,3.25,1.2,3.25,3.36v6.5s-.86,0-.86,0v-6.31c0-1.89-1.01-2.89-2.66-2.89-1.87,0-3.17,1.27-3.17,3.18v6.02s-.85,0-.85,0v-6.31c0-1.89-1.01-2.89-2.67-2.89-1.86,0-3.16,1.27-3.16,3.18v6.02s-.86,0-.86,0v-9.57Z"/><path class="cls-1" d="M50.49,87.74h.86s0,2.47,0,2.47c.6-1.84,2.02-2.76,3.96-2.76,2.64,0,4.32,1.69,4.32,4.95v.26c0,3.27-1.68,4.95-4.32,4.95-1.94,0-3.36-.92-3.96-2.76v6.29s-.86,0-.86,0v-13.39ZM58.76,92.69v-.34c0-2.8-1.45-4.26-3.7-4.26s-3.71,1.46-3.71,4.26v.34c0,2.8,1.46,4.26,3.71,4.26s3.7-1.46,3.7-4.26Z"/><path class="cls-1" d="M61.67,83.91h.86s0,13.39,0,13.39h-.86s0-13.39,0-13.39Z"/><path class="cls-1" d="M64.83,84.6h1.29s0,1.33,0,1.33h-1.29s0-1.33,0-1.33ZM65.04,87.74h.86s0,9.56,0,9.56h-.86s0-9.56,0-9.56Z"/><path class="cls-1" d="M69.64,88.39h-2.17s0-.65,0-.65h2.35c-.21-.13-.56-.5-.56-1.48v-.29c0-1.45.81-2.25,2.71-2.25.64,0,1.12.08,1.35.13v.64c-.22-.05-.72-.13-1.25-.13-1.39,0-1.97.58-1.97,1.72v.33c0,.93.34,1.27.55,1.34h2.67s0,.65,0,.65h-2.83v8.91s-.86,0-.86,0v-8.91Z"/><path class="cls-1" d="M74.24,101.17v-.74c.17.03.59.08.91.08,1.06,0,1.66-.49,2.12-1.58l.7-1.63-4.03-9.56h.92s3.54,8.6,3.54,8.6l3.54-8.6h.91s-4.85,11.5-4.85,11.5c-.59,1.39-1.36,2.01-2.81,2.01-.4,0-.78-.05-.94-.08Z"/><path class="cls-5" d="M20.15,113h.85c.07,1.74,1.02,2.65,3.35,2.65s3.2-.89,3.2-2.17v-.07c0-.99-.55-1.54-1.68-1.67l-3.28-.38c-1.52-.18-2.29-.94-2.29-2.29v-.07c0-1.7,1.2-2.87,3.87-2.87s3.7,1.07,3.75,2.97h-.83c-.07-1.54-.88-2.33-2.94-2.33s-2.99.88-2.99,2.17v.07c0,1,.53,1.53,1.72,1.67l3.28.37c1.46.17,2.24.94,2.24,2.31v.07c0,1.66-1.18,2.87-4.09,2.87s-4.11-1.18-4.16-3.3Z"/><path class="cls-5" d="M30.23,103.3h1.29s0,1.33,0,1.33h-1.29s0-1.33,0-1.33ZM30.45,106.44h.86s0,9.56,0,9.56h-.86s0-9.56,0-9.56Z"/><path class="cls-5" d="M33.82,106.43h.86s0,1.91,0,1.91c.52-1.37,1.77-2.2,3.45-2.2s2.82.85,3.14,2.39c.49-1.48,1.77-2.39,3.53-2.39,2.04,0,3.25,1.2,3.25,3.36v6.5s-.86,0-.86,0v-6.31c0-1.89-1.01-2.89-2.66-2.89-1.87,0-3.17,1.27-3.17,3.18v6.02s-.85,0-.85,0v-6.31c0-1.89-1.01-2.89-2.67-2.89-1.86,0-3.16,1.27-3.16,3.18v6.02s-.86,0-.86,0v-9.57Z"/><path class="cls-5" d="M50.49,106.44h.86s0,2.47,0,2.47c.6-1.84,2.02-2.76,3.96-2.76,2.64,0,4.32,1.69,4.32,4.95v.26c0,3.27-1.68,4.95-4.32,4.95-1.94,0-3.36-.92-3.96-2.76v6.29s-.86,0-.86,0v-13.39ZM58.76,111.39v-.34c0-2.8-1.45-4.26-3.7-4.26s-3.71,1.46-3.71,4.26v.34c0,2.8,1.46,4.26,3.71,4.26s3.7-1.46,3.7-4.26Z"/><path class="cls-5" d="M61.67,102.61h.86s0,13.39,0,13.39h-.86s0-13.39,0-13.39Z"/><path class="cls-5" d="M64.83,103.3h1.29s0,1.33,0,1.33h-1.29s0-1.33,0-1.33ZM65.04,106.44h.86s0,9.56,0,9.56h-.86s0-9.56,0-9.56Z"/><path class="cls-5" d="M69.64,107.09h-2.17s0-.65,0-.65h2.35c-.21-.13-.56-.5-.56-1.48v-.29c0-1.45.81-2.25,2.71-2.25.64,0,1.12.08,1.35.13v.64c-.22-.05-.72-.13-1.25-.13-1.39,0-1.97.58-1.97,1.72v.33c0,.93.34,1.27.55,1.34h2.67s0,.65,0,.65h-2.83v8.91s-.86,0-.86,0v-8.91Z"/><path class="cls-5" d="M74.24,119.87v-.74c.17.03.59.08.91.08,1.06,0,1.66-.49,2.12-1.58l.7-1.63-4.03-9.56h.92s3.54,8.6,3.54,8.6l3.54-8.6h.91s-4.85,11.5-4.85,11.5c-.59,1.39-1.36,2.01-2.81,2.01-.4,0-.78-.05-.94-.08Z"/><path class="cls-3" d="M81.01,136.19v1.98c0,1.23-.8,2.32-1.98,2.65-1.86.52-3.56-.88-3.56-2.66v-1.97h-1.54v1.98c0,2.01,1.39,3.78,3.36,4.2,2.79.6,5.27-1.52,5.27-4.21v-1.97h-1.54Z"/><rect class="cls-3" x="73.93" y="131.92" width="1.96" height="1.96"/><path class="cls-3" d="M79.44,134l-1.25-.64c.57-1.12,1.63-1.68,2.91-1.53.51.06.97.25,1.35.55.16.13.29.27.39.41l-1.14.8-.14-.11c-.17-.14-.39-.22-.63-.25-1.04-.12-1.38.55-1.49.78Z"/></svg>
