<?xml version="1.0" encoding="UTF-8"?><svg id="Dimensions" xmlns="http://www.w3.org/2000/svg" viewBox="0 0 113.39 113.39"><defs><style>.cls-1{fill:#fff;}.cls-2{fill:#d6f20c;}</style></defs><circle class="cls-2" cx="56.69" cy="56.69" r="42.52"/><g id="ktZPcE"><path d="M65.66,27.31v2.6s.07-.06.09-.06h4.96s.09.09.09.09v2.42s-.07.05-.06.09h5.13s0,2.54,0,2.54h2.54s0,2.54,0,2.54h2.54s0,5.13,0,5.13l2.46-.05.13.08v4.9s-.08.08-.06.15h2.51s.09.09.09.09v17.85s-2.6,0-2.6,0c-.02.04.06.07.06.09v5.04s-.07-.06-.09-.06h-2.51v5.13s-2.54,0-2.54,0v2.54s-2.54,0-2.54,0v2.54s-5.13,0-5.13,0v2.6s-5.07,0-5.07,0v2.54s-17.85,0-17.85,0l-.09-.09v-2.45h-5.04s-.08-.13-.08-.13l.05-2.46h-5.13s0-2.54,0-2.54h-2.54s0-2.54,0-2.54h-2.54s0-5.04,0-5.04l-.09-.08-2.38.03-.12-.07.06-5.04h-2.51s-.09-.09-.09-.09v-17.76s.09-.09.09-.09h2.45v-5.04s.09-.08.09-.08c.02,0,.04.05.06.05h2.45v-5.13s2.54,0,2.54,0v-2.54s2.54,0,2.54,0v-2.54s5.13,0,5.13,0l-.04-2.51.07-.09h4.96s.05.07.09.06v-2.51s.09-.09.09-.09h17.85ZM65.6,29.91h-17.82s0,2.54,0,2.54l-5.13.09v2.42s.07.05.06.09h-5.13v2.54s-2.54,0-2.54,0v5.13s-2.51-.04-2.51-.04l-.09.07v4.99s48.5,0,48.5,0v-4.99s-.09-.09-.09-.09h-2.36s-.04.05-.06.05l-.09-.08v-5.04h-2.54s0-2.54,0-2.54h-5.04c-.13-.08-.03-.13-.03-.15v-2.36c0-.15-.35-.03-.44-.03-1.49.04-2.99-.04-4.49,0l-.2-.09v-2.51ZM32.44,47.78h-2.54s0,17.82,0,17.82h2.51s.09.09.09.09v4.9s-.1.05-.03.09l.06.06s.04-.06.06-.06h2.12s.17.07.27.03l.06.06v5.04h2.54s0,2.54,0,2.54h5.04c.13.07.03.16.04.26.08.74.09,1.51,0,2.25l.07.09h4.84s.12-.09.21-.06v2.6s17.82,0,17.82,0v-2.54s5.04,0,5.04,0c.08-.05.08-.12.09-.2.05-.46.01-1.23,0-1.72,0-.22-.17-.5.03-.68h5.04v-2.54s2.54,0,2.54,0v-5.07c.75-.09,1.64.09,2.39,0,.09-.01.15,0,.2-.09v-5.04s2.54,0,2.54,0v-17.82s-2.54,0-2.54,0v2.54s-2.54,0-2.54,0v2.6c-.74-.04-1.65-.13-2.39-.06-.07,0-.13,0-.18.06-.04.04.03.07.03.09v2.36s-.09.09-.09.09h-2.51v2.54s-10.21,0-10.21,0v-2.54h-2.51c-.13-.08-.03-.13-.03-.15v-2.36c-.09-.08-.31-.08-.44-.09-.67-.03-1.36,0-2.03.04l-.12-.06v-2.51h-2.48v2.51c-.08.13-.13.03-.15.03h-2.36s-.09.09-.09.09v2.51s-2.54,0-2.54,0v2.54s-10.21,0-10.21,0v-2.54h-2.51c-.08-.05-.08-.12-.09-.2-.09-.74.08-1.64,0-2.39h-2.39s-.04.05-.06.05l-.09-.08v-2.51h-2.54s0-2.54,0-2.54ZM40.11,52.86c0-.84,0-1.69,0-2.54h-2.54v2.54c.84,0,1.69,0,2.54,0,0,.84,0,1.69,0,2.54h2.54v-2.54c-.84,0-1.69,0-2.54,0ZM63.07,52.86c0-.84,0-1.69,0-2.54h-2.54v2.54c.84,0,1.69,0,2.54,0,0,.84,0,1.69,0,2.54h2.54v-2.54c-.84,0-1.69,0-2.54,0Z"/><path class="cls-1" d="M40.11,52.86c-.84,0-1.69,0-2.54,0v-2.54s2.54,0,2.54,0c0,.84,0,1.69,0,2.54.84,0,1.69,0,2.54,0v2.54s-2.54,0-2.54,0c0-.84,0-1.69,0-2.54Z"/><path class="cls-1" d="M63.07,52.86c-.84,0-1.69,0-2.54,0v-2.54s2.54,0,2.54,0c0,.84,0,1.69,0,2.54.84,0,1.69,0,2.54,0v2.54s-2.54,0-2.54,0c0-.84,0-1.69,0-2.54Z"/><path d="M45.25,63.07v2.54h2.54s0,2.54,0,2.54h17.82s0-2.54,0-2.54h2.54v-2.54s2.6,0,2.6,0v2.6s-2.54,0-2.54,0v2.54s-2.54,0-2.54,0v2.54s-17.94,0-17.94,0v-2.45s.07-.05.06-.09h-2.6s0-2.6,0-2.6c-.04-.02-.07.06-.09.06h-2.45s0-2.6,0-2.6h2.6Z"/></g></svg>